# xmcd
#
# Track frame offsets:
#   150
#   18041
#   38664
#   57017
#   69158
#   84024
#   100098
#   115176
#   132358
#   147187
#   163819
#   181007
#   194366
#   211662
#   224958
#
# Disc length: 3193 seconds
#
# Revision: 0
# Processed by: cddbd v1.5.2PL0 Copyright (c) Steve Scherf et al.
# Submitted via: uFREEDB 1.6.0
#
DISCID=c30c770f
DTITLE=Ivonir e Garotos de Ouro - Da Hora
DYEAR=2003
DGENRE=Gaúcha
TTITLE0=Barquinho
TTITLE1=Marca de raiz
TTITLE2=Carona na 101
TTITLE3=Nas madrugagas do rodeio
TTITLE4=Chevetão
TTITLE5=Carns boa
TTITLE6=Bicando as loirinhas
TTITLE7=Gastoso
TTITLE8=A dança do Robozão
TTITLE9=Nessa onda que eu vou
TTITLE10=Viajante solitátrio
TTITLE11=Só se for agora
TTITLE12=Linda terra, Santa Catarina
TTITLE13=Anjo bom
TTITLE14=Orgulho ferido
EXTD=
EXTT0=
EXTT1=
EXTT2=
EXTT3=
EXTT4=
EXTT5=
EXTT6=
EXTT7=
EXTT8=
EXTT9=
EXTT10=
EXTT11=
EXTT12=
EXTT13=
EXTT14=
PLAYORDER=
